<svg width="422" height="422" viewBox="0 0 422 422" fill="none" xmlns="http://www.w3.org/2000/svg">
<rect x="11" y="11" width="400" height="400" rx="112" fill="#0364FF"/>
<path fill-rule="evenodd" clip-rule="evenodd" d="M289.101 260.625C287.808 265.452 280.958 265.452 279.665 260.625L264.6 204.403C264.309 203.316 264.309 202.172 264.6 201.085L277.95 151.262C279.13 146.858 283.122 143.795 287.681 143.795H307.276C313.901 143.795 318.722 150.079 317.007 156.477L289.101 260.625ZM159.849 204.309C160.14 203.222 160.14 202.078 159.849 200.991L146.524 151.262C145.344 146.858 141.353 143.795 136.793 143.795H117.198C110.574 143.795 105.753 150.079 107.467 156.477L135.348 260.531C136.642 265.358 143.491 265.358 144.784 260.531L159.849 204.309Z" fill="white"/>
<path fill-rule="evenodd" clip-rule="evenodd" d="M202.289 271.952C201.847 273.6 203.089 275.219 204.796 275.219H219.739C221.446 275.219 222.688 273.6 222.246 271.952L214.774 244.066C214.087 241.502 210.448 241.502 209.761 244.066L202.289 271.952Z" fill="white"/>
<path fill-rule="evenodd" clip-rule="evenodd" d="M187.408 289.806C186.264 294.077 182.394 297.047 177.972 297.047H157.745C151.322 297.047 146.646 290.954 148.309 284.749L189.804 129.887C191.056 125.216 195.289 121.968 200.125 121.968H224.198C229.034 121.968 233.267 125.216 234.519 129.887L276.014 284.749C277.676 290.954 273.001 297.047 266.578 297.047H246.35C241.929 297.047 238.059 294.077 236.914 289.806L216.732 214.485C215.479 209.809 208.844 209.809 207.591 214.485L187.408 289.806Z" fill="white"/>
<path fill-rule="evenodd" clip-rule="evenodd" d="M289.154 260.625C287.86 265.452 281.011 265.452 279.718 260.625L264.653 204.403C264.362 203.316 264.362 202.172 264.653 201.085L283.852 129.435C285.032 125.03 289.023 121.968 293.583 121.968H313.178C319.802 121.968 324.623 128.251 322.909 134.649L289.154 260.625ZM159.902 204.309C160.193 203.222 160.193 202.078 159.902 200.991L140.728 129.435C139.548 125.03 135.557 121.968 130.997 121.968H111.402C104.778 121.968 99.9566 128.251 101.671 134.649L135.401 260.531C136.694 265.358 143.544 265.358 144.837 260.531L159.902 204.309Z" fill="white"/>
</svg>
